<svg width="363" height="331" viewBox="0 0 363 331" fill="none" xmlns="http://www.w3.org/2000/svg">
<path d="M357.745 330.653H0.290809C0.252619 330.653 0.214804 330.645 0.179521 330.63C0.144239 330.615 0.11218 330.593 0.085176 330.565C0.0581718 330.537 0.036751 330.504 0.0221365 330.467C0.007522 330.431 0 330.392 0 330.352C0 330.313 0.007522 330.274 0.0221365 330.237C0.036751 330.201 0.0581718 330.168 0.085176 330.14C0.11218 330.112 0.144239 330.09 0.179521 330.075C0.214804 330.06 0.252619 330.052 0.290809 330.052H357.745C357.822 330.052 357.896 330.083 357.95 330.14C358.005 330.196 358.035 330.273 358.035 330.352C358.035 330.432 358.005 330.508 357.95 330.565C357.896 330.621 357.822 330.653 357.745 330.653H357.745Z" fill="#292A2E"/>
<g opacity="0.65">
<path d="M357.745 330.653H0.290809C0.252619 330.653 0.214804 330.645 0.179521 330.63C0.144239 330.615 0.11218 330.593 0.085176 330.565C0.0581718 330.537 0.036751 330.504 0.0221365 330.467C0.007522 330.431 0 330.392 0 330.352C0 330.313 0.007522 330.274 0.0221365 330.237C0.036751 330.201 0.0581718 330.168 0.085176 330.14C0.11218 330.112 0.144239 330.09 0.179521 330.075C0.214804 330.06 0.252619 330.052 0.290809 330.052H357.745C357.822 330.052 357.896 330.083 357.95 330.14C358.005 330.196 358.035 330.273 358.035 330.352C358.035 330.432 358.005 330.508 357.95 330.565C357.896 330.621 357.822 330.653 357.745 330.653H357.745Z" fill="#292A2E"/>
</g>
<path d="M25.177 330.124L24.361 329.962L37.1134 198.997L37.9294 199.159L25.177 330.124Z" fill="#494949"/>
<path d="M72.661 330.124L71.8451 329.962L84.5975 198.997L85.413 199.159L72.661 330.124Z" fill="#494949"/>
<path d="M177.621 330.124L178.437 329.962L165.685 198.997L164.869 199.159L177.621 330.124Z" fill="#494949"/>
<path d="M130.138 330.124L130.953 329.962L118.201 198.997L117.385 199.159L130.138 330.124Z" fill="#494949"/>
<path d="M113.226 141.36L112.402 141.473L119.852 199.136L120.675 199.023L113.226 141.36Z" fill="#494949"/>
<path d="M27.7177 141.359L26.8941 141.473L34.3438 199.136L35.1674 199.022L27.7177 141.359Z" fill="#494949"/>
<path d="M120.604 194.856H36.9676C34.711 194.856 32.8817 196.746 32.8817 199.078V199.079C32.8817 201.411 34.711 203.301 36.9676 203.301H120.604C122.861 203.301 124.69 201.411 124.69 199.079V199.078C124.69 196.746 122.861 194.856 120.604 194.856Z" fill="#292A2E"/>
<path opacity="0.8" d="M120.604 194.856H36.9676C34.711 194.856 32.8817 196.746 32.8817 199.078V199.079C32.8817 201.411 34.711 203.301 36.9676 203.301H120.604C122.861 203.301 124.69 201.411 124.69 199.079V199.078C124.69 196.746 122.861 194.856 120.604 194.856Z" fill="white"/>
<path d="M120.603 203.731H36.9676C35.7812 203.719 34.6473 203.224 33.8124 202.352C32.9775 201.481 32.5091 200.305 32.5091 199.079C32.5091 197.852 32.9775 196.676 33.8124 195.805C34.6473 194.933 35.7812 194.438 36.9676 194.426H120.603C121.789 194.438 122.923 194.933 123.758 195.805C124.593 196.676 125.061 197.852 125.061 199.079C125.061 200.305 124.593 201.481 123.758 202.352C122.923 203.224 121.789 203.719 120.603 203.731ZM36.9676 195.285C36.0009 195.296 35.0772 195.7 34.3972 196.41C33.7172 197.121 33.3358 198.079 33.3358 199.079C33.3358 200.078 33.7172 201.036 34.3972 201.747C35.0772 202.457 36.0009 202.861 36.9676 202.872H120.603C121.569 202.861 122.493 202.457 123.173 201.747C123.853 201.036 124.234 200.078 124.234 199.079C124.234 198.079 123.853 197.121 123.173 196.41C122.493 195.7 121.569 195.296 120.603 195.285H36.9676Z" fill="#292A2E"/>
<path d="M166.508 194.856H82.8718C80.6152 194.856 78.7859 196.746 78.7859 199.078V199.079C78.7859 201.411 80.6152 203.301 82.8718 203.301H166.508C168.765 203.301 170.594 201.411 170.594 199.079V199.078C170.594 196.746 168.765 194.856 166.508 194.856Z" fill="white"/>
<path d="M166.509 203.731H82.8722C82.2774 203.737 81.6874 203.621 81.1362 203.389C80.585 203.158 80.0837 202.817 79.6611 202.384C79.2384 201.951 78.903 201.437 78.674 200.869C78.4451 200.302 78.3272 199.693 78.3272 199.079C78.3272 198.464 78.4451 197.855 78.674 197.288C78.903 196.72 79.2384 196.206 79.6611 195.773C80.0837 195.34 80.585 194.999 81.1362 194.768C81.6874 194.536 82.2774 194.42 82.8722 194.426H166.509C167.104 194.42 167.694 194.536 168.245 194.768C168.796 194.999 169.297 195.34 169.72 195.773C170.142 196.206 170.478 196.72 170.707 197.288C170.936 197.855 171.054 198.464 171.054 199.079C171.054 199.693 170.936 200.302 170.707 200.869C170.478 201.437 170.142 201.951 169.72 202.384C169.297 202.817 168.796 203.158 168.245 203.389C167.694 203.621 167.104 203.737 166.509 203.731ZM82.8722 195.285C82.3868 195.28 81.9053 195.374 81.4554 195.562C81.0056 195.75 80.5963 196.029 80.2513 196.382C79.9063 196.735 79.6324 197.155 79.4454 197.617C79.2585 198.08 79.1623 198.577 79.1623 199.079C79.1623 199.58 79.2585 200.077 79.4454 200.54C79.6324 201.003 79.9063 201.423 80.2513 201.775C80.5963 202.128 81.0056 202.407 81.4554 202.595C81.9053 202.783 82.3868 202.877 82.8722 202.872H166.509C166.994 202.877 167.476 202.783 167.925 202.595C168.375 202.407 168.785 202.128 169.13 201.775C169.475 201.423 169.749 201.003 169.935 200.54C170.122 200.077 170.219 199.58 170.219 199.079C170.219 198.577 170.122 198.08 169.935 197.617C169.749 197.155 169.475 196.735 169.13 196.382C168.785 196.029 168.375 195.75 167.925 195.562C167.476 195.374 166.994 195.28 166.509 195.285H82.8722Z" fill="#292A2E"/>
<path d="M108.644 141.415H27.5304C26.2043 141.415 24.9235 140.916 23.9271 140.012C22.9307 139.108 22.2868 137.859 22.1156 136.5L16.7502 93.9177C16.6498 93.1217 16.7149 92.3128 16.9412 91.5449C17.1674 90.777 17.5496 90.0678 18.0621 89.4647C18.5746 88.8616 19.2058 88.3784 19.9134 88.0474C20.621 87.7164 21.3887 87.5452 22.1654 87.5453H103.279C104.605 87.5453 105.886 88.0441 106.882 88.9484C107.878 89.8528 108.522 91.101 108.694 92.4601L114.059 135.043C114.159 135.839 114.094 136.648 113.868 137.415C113.642 138.183 113.259 138.892 112.747 139.495C112.234 140.099 111.603 140.582 110.896 140.913C110.188 141.244 109.421 141.415 108.644 141.415Z" fill="#292A2E"/>
<path opacity="0.8" d="M108.644 141.415H27.5304C26.2043 141.415 24.9235 140.916 23.9271 140.012C22.9307 139.108 22.2868 137.859 22.1156 136.5L16.7502 93.9177C16.6498 93.1217 16.7149 92.3128 16.9412 91.5449C17.1674 90.777 17.5496 90.0678 18.0621 89.4647C18.5746 88.8616 19.2058 88.3784 19.9134 88.0474C20.621 87.7164 21.3887 87.5452 22.1654 87.5453H103.279C104.605 87.5453 105.886 88.0441 106.882 88.9484C107.878 89.8528 108.522 91.101 108.694 92.4601L114.059 135.043C114.159 135.839 114.094 136.648 113.868 137.415C113.642 138.183 113.259 138.892 112.747 139.495C112.234 140.099 111.603 140.582 110.896 140.913C110.188 141.244 109.421 141.415 108.644 141.415Z" fill="white"/>
<path d="M108.644 141.845H27.5304C26.1044 141.841 24.728 141.303 23.6564 140.331C22.5849 139.359 21.891 138.018 21.7035 136.557L16.338 93.9739C16.2301 93.1174 16.3002 92.247 16.5436 91.4207C16.787 90.5944 17.1982 89.8313 17.7497 89.1823C18.3012 88.5333 18.9803 88.0134 19.7417 87.6572C20.5031 87.301 21.3293 87.1168 22.165 87.1168H103.279C104.705 87.1202 106.082 87.6581 107.153 88.6307C108.225 89.6034 108.919 90.9448 109.106 92.406L114.471 134.988C114.579 135.845 114.509 136.715 114.266 137.541C114.022 138.368 113.611 139.131 113.059 139.78C112.508 140.429 111.829 140.949 111.067 141.305C110.306 141.661 109.48 141.845 108.644 141.845V141.845ZM22.165 87.9747C21.4474 87.9747 20.7381 88.1329 20.0844 88.4387C19.4307 88.7446 18.8477 89.191 18.3742 89.7483C17.9007 90.3055 17.5477 90.9607 17.3387 91.6701C17.1297 92.3796 17.0696 93.1269 17.1623 93.8623L22.5273 136.445C22.6883 137.699 23.284 138.851 24.2041 139.686C25.1241 140.521 26.306 140.983 27.5304 140.986H108.644C109.362 140.986 110.071 140.828 110.725 140.522C111.379 140.216 111.962 139.769 112.436 139.212C112.909 138.654 113.262 137.999 113.471 137.289C113.68 136.58 113.74 135.832 113.647 135.097L108.282 92.5146C108.121 91.2602 107.525 90.1088 106.605 89.2739C105.685 88.439 104.503 87.9774 103.279 87.9747H22.165Z" fill="#292A2E"/>
<path d="M113.231 141.415H32.1173C30.7911 141.415 29.5103 140.916 28.5138 140.012C27.5173 139.108 26.8734 137.86 26.702 136.5L21.3366 93.9177C21.2364 93.1218 21.3016 92.3129 21.5279 91.545C21.7542 90.7772 22.1364 90.0681 22.6489 89.465C23.1614 88.8619 23.7925 88.3787 24.5 88.0477C25.2075 87.7167 25.9752 87.5454 26.7519 87.5453H107.866C109.192 87.5453 110.473 88.044 111.469 88.9484C112.465 89.8528 113.109 91.101 113.281 92.4601L118.646 135.043C118.746 135.839 118.681 136.648 118.455 137.415C118.229 138.183 117.846 138.892 117.334 139.495C116.821 140.099 116.19 140.582 115.483 140.913C114.775 141.244 114.008 141.415 113.231 141.415Z" fill="white"/>
<path d="M113.231 141.845H32.1173C30.6913 141.841 29.3148 141.304 28.2432 140.331C27.1717 139.359 26.4778 138.018 26.2903 136.557L20.9249 93.9739C20.817 93.1174 20.887 92.247 21.1305 91.4207C21.3739 90.5944 21.7851 89.8313 22.3366 89.1823C22.8881 88.5333 23.5672 88.0134 24.3286 87.6572C25.09 87.301 25.9161 87.1168 26.7519 87.1168H107.866C109.292 87.1201 110.668 87.658 111.74 88.6307C112.812 89.6033 113.505 90.9448 113.692 92.406L119.058 134.988C119.166 135.845 119.096 136.715 118.852 137.541C118.609 138.368 118.198 139.131 117.646 139.78C117.095 140.429 116.416 140.949 115.654 141.305C114.893 141.661 114.067 141.845 113.231 141.845V141.845ZM26.7519 87.9747C26.0343 87.9747 25.325 88.1329 24.6713 88.4387C24.0175 88.7446 23.4345 89.191 22.961 89.7482C22.4874 90.3055 22.1344 90.9607 21.9253 91.6701C21.7163 92.3796 21.6561 93.1269 21.7487 93.8623L27.1142 136.445C27.275 137.7 27.8707 138.851 28.7908 139.686C29.7109 140.521 30.8928 140.983 32.1173 140.986H113.231C113.949 140.986 114.658 140.828 115.312 140.522C115.966 140.216 116.549 139.769 117.023 139.212C117.496 138.655 117.849 137.999 118.058 137.29C118.267 136.58 118.327 135.832 118.235 135.097L112.869 92.5146C112.708 91.26 112.113 90.1083 111.193 89.2732C110.272 88.4381 109.09 87.9762 107.866 87.9734L26.7519 87.9747Z" fill="#292A2E"/>
<path d="M227.629 308.221C227.629 308.221 229.856 320.154 240.667 320.819C251.478 321.483 249.134 330.384 249.134 330.384H207.821V309.053L227.629 308.221Z" fill="black"/>
<path d="M149.032 300.686C149.032 300.686 145.934 312.41 155.351 317.939C164.768 323.468 158.863 330.384 158.863 330.384L121.792 311.536L130.903 292.395L149.032 300.686Z" fill="black"/>
<path d="M115.766 22.6292C115.766 22.6292 121.156 18.4246 122.492 8.74625C123.526 1.25242 116.837 6.10705 116.837 6.10705C116.837 6.10705 117.531 0.704139 113.722 1.23996C109.912 1.77579 107.781 7.45263 107.781 7.45263" fill="#0C0C0C"/>
<path d="M94.0343 1.87239C94.0343 1.87239 75.1338 3.96675 81.9661 30.4352L83.6387 30.5507L87.0337 30.786" fill="#0C0C0C"/>
<path d="M112.601 58.0775C112.518 58.0663 111.595 73.8775 93.8203 72.5001C81.5149 71.5478 77.1275 58.0551 76.8454 58.0551C78.1723 57.7636 79.8116 57.3214 80.4635 57.1694C81.8835 56.8287 83.1696 56.0492 84.1505 54.9347C85.1314 53.8201 85.7608 52.4234 85.9548 50.9301C86.3149 48.6889 85.7055 37.2219 85.892 34.9541L104.781 39.3115C104.517 44.1009 102.67 55.2043 109.143 57.1694C110.222 57.4944 111.382 57.7932 112.601 58.0775Z" fill="#E98862"/>
<path opacity="0.52" d="M105.046 52.6316C104.751 51.6462 104.56 50.6304 104.478 49.6021C104.271 47.2555 104.312 44.8925 104.603 42.5553C100.763 42.0197 97.1466 40.382 94.163 37.8281C93.8124 39.1668 91.8835 45.0163 92.4182 46.2889C93.4256 48.6936 98.1687 52.6316 105.046 52.6316Z" fill="#0C0C0C"/>
<path d="M101.148 49.5021C93.6957 48.8113 84.7766 43.9455 84.6482 33.4913L84.5319 24.0589C84.4035 13.6048 89.6119 5.0603 99.1363 4.93536C108.66 4.80999 115.884 13.1913 116.012 23.6451L116.063 27.8209C116.057 29.2551 115.956 30.6871 115.761 32.1071C115.272 35.8639 114.514 41.5755 112.048 45.4396C109.718 49.0869 105.908 49.9435 101.148 49.5021Z" fill="#E98862"/>
<path d="M104.605 39.9465C106.143 40.0186 107.676 39.716 109.079 39.0634C109.108 39.0506 109.135 39.032 109.157 39.0087C109.179 38.9854 109.196 38.9578 109.208 38.9275C109.22 38.8973 109.226 38.8649 109.225 38.8323C109.225 38.7997 109.219 38.7675 109.206 38.7375C109.194 38.7075 109.176 38.6803 109.153 38.6575C109.131 38.6347 109.104 38.6167 109.075 38.6045C109.045 38.5924 109.014 38.5863 108.983 38.5866C108.951 38.587 108.92 38.5937 108.891 38.6065C105.866 39.9397 103.12 39.7443 100.949 38.0419C100.905 38.0062 100.859 37.9728 100.812 37.9419C100.758 37.9158 100.696 37.9117 100.638 37.9305C100.581 37.9493 100.533 37.9897 100.503 38.0435C100.473 38.0974 100.463 38.1609 100.476 38.2216C100.489 38.2823 100.524 38.3357 100.573 38.3712C100.591 38.3824 100.619 38.4052 100.656 38.4365C101.798 39.335 103.173 39.8607 104.605 39.9465Z" fill="#0C0C0C"/>
<path d="M104.533 42.3015C104.811 42.3194 105.09 42.3125 105.367 42.2809C105.43 42.2739 105.488 42.2413 105.528 42.1901C105.568 42.1389 105.587 42.0733 105.58 42.0078C105.573 41.9424 105.542 41.8823 105.492 41.8409C105.443 41.7995 105.379 41.7802 105.316 41.7871C103.651 41.97 102.857 41.1818 102.823 41.1478C102.778 41.1034 102.717 41.079 102.655 41.0799C102.592 41.0807 102.532 41.1068 102.488 41.1525C102.444 41.1983 102.418 41.2601 102.418 41.3248C102.417 41.3895 102.44 41.452 102.483 41.4991C103.056 42.003 103.781 42.2865 104.533 42.3015Z" fill="#0C0C0C"/>
<path d="M112.867 29.8311C113.515 29.8311 114.04 29.2883 114.04 28.6186C114.04 27.949 113.515 27.4061 112.867 27.4061C112.219 27.4061 111.693 27.949 111.693 28.6186C111.693 29.2883 112.219 29.8311 112.867 29.8311Z" fill="#0C0C0C"/>
<path d="M101.405 29.0879C102.053 29.0879 102.579 28.545 102.579 27.8754C102.579 27.2058 102.053 26.6629 101.405 26.6629C100.757 26.6629 100.232 27.2058 100.232 27.8754C100.232 28.545 100.757 29.0879 101.405 29.0879Z" fill="#0C0C0C"/>
<path d="M85.2788 36.6685C82.3845 36.7067 79.999 33.5372 79.9612 30.546C79.9234 27.5547 82.2503 25.8747 85.1446 25.8365L86.6606 27.8209L87.7665 36.6358L85.2788 36.6685Z" fill="#E98862"/>
<path d="M88.1566 31.8619C88.1566 31.8619 89.1341 17.0696 93.4742 16.1564C96.3649 15.548 103.375 19.7852 109.867 18.5053C112.708 17.9472 115.405 18.6724 115.679 20.0587C115.787 20.6078 117.557 12.7169 113.109 6.73004C109.567 1.96428 97.9772 0.616125 92.7044 2.17895C78.1046 6.50764 84.5472 26.4878 84.5472 26.4878L85.1982 31.5871L88.1566 31.8619Z" fill="#0C0C0C"/>
<path d="M106.353 36.4555C106.359 36.4559 106.365 36.4559 106.372 36.4555C107.304 36.4456 108.868 36.322 108.861 35.6007C108.855 35.003 107.21 28.5701 107.022 27.8385C107.001 27.7815 106.961 27.7345 106.908 27.7066C106.856 27.6787 106.795 27.672 106.738 27.6876C106.681 27.7033 106.632 27.7403 106.6 27.7914C106.568 27.8426 106.555 27.9042 106.565 27.9643C107.296 30.8135 108.384 35.1997 108.389 35.6067C108.298 35.7784 107.335 35.9549 106.369 35.9652C106.308 35.9665 106.25 35.992 106.207 36.0363C106.164 36.0807 106.138 36.1405 106.137 36.2034C106.135 36.2664 106.156 36.3276 106.197 36.3745C106.238 36.4214 106.294 36.4504 106.355 36.4555H106.353Z" fill="#0C0C0C"/>
<path d="M109.537 22.0444C110.517 21.7656 111.552 21.7656 112.532 22.0444C113.014 22.1782 113.473 22.386 113.895 22.661C114.312 22.9301 114.694 23.2527 115.033 23.621C115.098 23.686 115.135 23.7746 115.138 23.868C115.14 23.9613 115.107 24.0519 115.046 24.1204C114.984 24.1889 114.899 24.2298 114.809 24.2344C114.719 24.2389 114.63 24.2068 114.563 24.1448L114.542 24.1259C114.228 23.8259 113.879 23.5679 113.503 23.3578C113.134 23.149 112.737 22.9991 112.324 22.9134C111.513 22.7371 110.671 22.7857 109.883 23.0543L109.85 23.0663C109.72 23.1138 109.577 23.106 109.452 23.0446C109.328 22.9832 109.232 22.8732 109.186 22.7389C109.14 22.6046 109.148 22.4569 109.207 22.3284C109.267 22.1998 109.373 22.1009 109.503 22.0535L109.537 22.0444Z" fill="#0C0C0C"/>
<path d="M102.596 22.6528C101.85 22.2782 101.021 22.114 100.194 22.1767C99.7746 22.2049 99.3614 22.2987 98.9689 22.4549C98.5698 22.6115 98.1913 22.8192 97.8422 23.0732L97.8198 23.0886C97.7448 23.1383 97.6543 23.1562 97.5669 23.1386C97.4795 23.121 97.4021 23.0693 97.3506 22.9943C97.2992 22.9192 97.2777 22.8265 97.2906 22.7355C97.3036 22.6445 97.3499 22.5622 97.4201 22.5056C97.8034 22.1873 98.2239 21.9201 98.6718 21.7104C99.1254 21.4964 99.6074 21.3537 100.102 21.2871C100.597 21.2152 101.099 21.2139 101.595 21.2832C102.103 21.3486 102.6 21.4884 103.071 21.6984C103.198 21.7553 103.297 21.862 103.348 21.9948C103.399 22.1277 103.396 22.2759 103.341 22.4068C103.286 22.5378 103.183 22.6407 103.054 22.6931C102.926 22.7454 102.782 22.7428 102.655 22.6859C102.646 22.6816 102.636 22.6769 102.627 22.6717L102.596 22.6528Z" fill="#0C0C0C"/>
<path d="M108.142 11.8612C110.284 11.3986 111.487 8.38177 110.828 5.12294C110.17 1.86411 107.899 -0.402693 105.756 0.0598976C103.614 0.522488 102.411 3.5393 103.07 6.79813C103.729 10.057 106 12.3238 108.142 11.8612Z" fill="#0C0C0C"/>
<path d="M126.072 297.375L157.334 195.452H100.668C89.2845 195.452 84.5393 185.476 84.5393 173.713C84.5393 161.95 95.7297 151.638 107.112 151.638H183.59C190.533 151.638 198.317 156.025 202.128 162.023C205.938 168.021 204.908 177.316 202.147 183.899L152.087 309.555" fill="#262626"/>
<path opacity="0.8" d="M126.072 297.375L157.334 195.452H100.668C89.2845 195.452 84.5393 185.476 84.5393 173.713C84.5393 161.95 95.7297 151.638 107.112 151.638H183.59C190.533 151.638 198.317 156.025 202.128 162.023C205.938 168.021 204.908 177.316 202.147 183.899L152.087 309.555" fill="#0A0A0A"/>
<path d="M205.445 319.303L153.173 195.452L84.5385 195.447C68.4564 194.144 61.091 185.036 61.3253 173.275C61.5563 161.663 67.2454 150.194 78.4303 150.194H170.937C179.213 150.37 185.724 159.821 188.794 167.765L232.249 311.72" fill="#262626"/>
<path d="M56.6441 150.336C56.6441 150.336 53.5961 170.879 58.4276 182.3C64.4594 196.559 87.071 195.448 87.071 195.448L85.7969 150.195L56.6441 150.336Z" fill="#262626"/>
<path d="M190.761 149.932L142.279 139.55C140.258 139.117 138.376 138.165 136.807 136.781C135.237 135.397 134.03 133.627 133.298 131.633L114.23 79.7024C113.649 78.1439 113.372 76.4821 113.415 74.8127C113.457 73.1432 113.819 71.4988 114.478 69.9741C115.137 68.4494 116.082 67.0743 117.257 65.9279C118.432 64.7814 119.815 63.8862 121.325 63.2937C122.836 62.7011 124.445 62.4229 126.061 62.475C127.676 62.5271 129.265 62.9084 130.737 63.5972C132.209 64.2859 133.535 65.2685 134.639 66.4884C135.743 67.7084 136.602 69.1416 137.168 70.7059L153.849 116.131L195.74 125.102C195.74 125.102 191.601 150.112 190.761 149.932Z" fill="#1F41BB"/>
<path d="M134.686 92.892C134.126 99.6899 130.158 142.1 129.618 150.473H56.6761C56.2569 142.921 54.375 109.899 52.7859 95.1298C51.2687 81.0381 49.1421 74.6254 50.8895 70.246C53.9712 62.5225 63.7806 59.0731 70.4235 58.144C74.4794 57.5764 80.5802 57.1694 80.5802 57.1694C80.5802 57.1694 81.097 67.9688 93.414 68.5699C110.181 69.3856 109.061 57.1694 109.144 57.1694C111.86 57.1694 126.646 59.2109 130.343 61.7012C135.565 65.2188 137.108 70.012 137.169 74.4163C137.239 79.4869 135.321 85.1805 134.686 92.892Z" fill="#1F41BB"/>
<path d="M131.819 127.543H131.802C131.775 127.541 131.748 127.533 131.724 127.52C131.7 127.507 131.678 127.49 131.661 127.468C131.643 127.447 131.63 127.422 131.621 127.395C131.613 127.368 131.61 127.34 131.612 127.312L133.506 103.803C133.507 103.775 133.514 103.747 133.527 103.722C133.539 103.696 133.556 103.674 133.577 103.655C133.598 103.637 133.622 103.623 133.648 103.615C133.675 103.606 133.702 103.604 133.73 103.607C133.757 103.609 133.783 103.617 133.808 103.63C133.832 103.643 133.853 103.661 133.871 103.682C133.889 103.704 133.902 103.728 133.91 103.755C133.919 103.782 133.922 103.811 133.92 103.839L132.026 127.347C132.021 127.401 131.998 127.45 131.96 127.487C131.921 127.523 131.871 127.543 131.819 127.543Z" fill="#0C0C0C"/>
<path d="M143.546 145.81L159.551 94.9657C159.832 94.0723 160.379 93.2937 161.115 92.7416C161.851 92.1895 162.736 91.8921 163.646 91.892H228.85C229.53 91.892 230.2 92.0582 230.805 92.3772C231.411 92.6961 231.935 93.1587 232.334 93.7271C232.734 94.2955 232.997 94.9535 233.103 95.6473C233.209 96.3412 233.155 97.0512 232.945 97.7191L216.94 148.564C216.659 149.457 216.111 150.236 215.376 150.788C214.64 151.34 213.755 151.637 212.845 151.638H147.641C146.961 151.638 146.291 151.471 145.686 151.152C145.08 150.833 144.556 150.371 144.157 149.802C143.757 149.234 143.494 148.576 143.388 147.882C143.281 147.188 143.336 146.478 143.546 145.81Z" fill="#292A2E"/>
<path opacity="0.2" d="M143.546 145.81L159.551 94.9657C159.832 94.0723 160.379 93.2937 161.115 92.7416C161.851 92.1895 162.736 91.8921 163.646 91.892H228.85C229.53 91.892 230.2 92.0582 230.805 92.3772C231.411 92.6961 231.935 93.1587 232.334 93.7271C232.734 94.2955 232.997 94.9535 233.103 95.6473C233.209 96.3412 233.155 97.0512 232.945 97.7191L216.94 148.564C216.659 149.457 216.111 150.236 215.376 150.788C214.64 151.34 213.755 151.637 212.845 151.638H147.641C146.961 151.638 146.291 151.471 145.686 151.152C145.08 150.833 144.556 150.371 144.157 149.802C143.757 149.234 143.494 148.576 143.388 147.882C143.281 147.188 143.336 146.478 143.546 145.81Z" fill="white"/>
<path d="M156.602 147.515H112.954C111.866 147.515 110.985 148.426 110.985 149.55V149.602C110.985 150.726 111.866 151.638 112.954 151.638H156.602C157.689 151.638 158.571 150.726 158.571 149.602V149.55C158.571 148.426 157.689 147.515 156.602 147.515Z" fill="#292A2E"/>
<path opacity="0.2" d="M156.602 147.515H112.954C111.866 147.515 110.985 148.426 110.985 149.55V149.602C110.985 150.726 111.866 151.638 112.954 151.638H156.602C157.689 151.638 158.571 150.726 158.571 149.602V149.55C158.571 148.426 157.689 147.515 156.602 147.515Z" fill="white"/>
<path d="M188.245 131.313C192.022 131.313 195.084 128.148 195.084 124.245C195.084 120.342 192.022 117.178 188.245 117.178C184.469 117.178 181.407 120.342 181.407 124.245C181.407 128.148 184.469 131.313 188.245 131.313Z" fill="white"/>
<path d="M135.347 83.4146H118.009V105.39H135.347V83.4146Z" fill="white"/>
<path d="M118.009 101.74C116.604 101.74 115.231 101.31 114.064 100.503C112.896 99.697 111.986 98.551 111.449 97.2101C110.911 95.8693 110.771 94.3939 111.045 92.9704C111.319 91.547 111.995 90.2395 112.988 89.2133C113.981 88.187 115.246 87.4881 116.623 87.205C118.001 86.9219 119.428 87.0672 120.726 87.6226C122.023 88.178 123.132 89.1185 123.912 90.3252C124.692 91.532 125.109 92.9507 125.109 94.402C125.107 96.3475 124.358 98.2127 123.027 99.5884C121.696 100.964 119.891 101.738 118.009 101.74ZM118.009 90.0699C117.179 90.0699 116.369 90.324 115.679 90.8001C114.99 91.2762 114.453 91.9528 114.135 92.7445C113.818 93.5362 113.735 94.4074 113.897 95.2478C114.059 96.0883 114.458 96.8603 115.044 97.4662C115.631 98.0721 116.378 98.4847 117.191 98.6518C118.004 98.8189 118.847 98.733 119.613 98.4051C120.379 98.0771 121.034 97.5217 121.494 96.8092C121.955 96.0966 122.201 95.2589 122.201 94.402C122.2 93.2533 121.758 92.152 120.972 91.3398C120.186 90.5276 119.12 90.0709 118.009 90.0699Z" fill="white"/>
<path d="M119.009 97.6578C118.85 97.2333 118.553 96.8798 118.168 96.6593C117.783 96.4388 117.336 96.3653 116.903 96.4517C116.912 96.4311 116.916 96.4091 116.916 96.3869L117.498 96.1181C117.905 95.9391 118.24 95.62 118.446 95.215C118.652 94.8099 118.717 94.3438 118.628 93.8954C118.567 93.6154 118.447 93.353 118.276 93.1269C118.105 92.9009 117.887 92.7169 117.639 92.5882C117.391 92.4596 117.118 92.3894 116.84 92.3828C116.563 92.3763 116.287 92.4334 116.034 92.5502L114.662 93.1844C114.662 93.1788 114.662 93.1732 114.659 93.1676C114.653 93.1562 114.647 93.1456 114.639 93.1359C114.977 92.8726 115.219 92.4987 115.325 92.0753C115.431 91.6518 115.395 91.2037 115.223 90.8041C114.842 89.7389 113.491 89.6538 112.599 90.0656L109.012 91.561L110.094 90.4262C110.434 90.0562 110.624 89.567 110.628 89.0573C110.631 88.5476 110.447 88.0556 110.113 87.6806C109.934 87.4933 109.72 87.3457 109.484 87.2468C109.248 87.1479 108.995 87.0997 108.74 87.1053C108.485 87.1108 108.234 87.1699 108.003 87.279C107.771 87.3881 107.563 87.5449 107.392 87.7398L94.6375 102.135L98.9996 106.477C100.354 107.825 102.067 108.725 103.92 109.06C105.772 109.396 107.68 109.152 109.397 108.36L117.171 104.758C117.579 104.579 117.914 104.26 118.12 103.855C118.326 103.45 118.39 102.984 118.301 102.536C118.213 102.133 118.003 101.77 117.701 101.5C117.399 101.23 117.022 101.066 116.624 101.033C116.628 101.011 116.628 100.988 116.624 100.965C116.62 100.943 116.611 100.922 116.599 100.903C116.587 100.884 116.571 100.868 116.553 100.855C116.534 100.843 116.514 100.834 116.492 100.83L117.928 100.168C118.382 99.9689 118.746 99.5991 118.947 99.1331C119.148 98.6672 119.17 98.1398 119.009 97.6578Z" fill="#E98862"/>
<path opacity="0.2" d="M112.068 94.4024C112.027 94.4026 111.987 94.3879 111.955 94.3609C111.924 94.3339 111.902 94.2962 111.894 94.2545C111.887 94.2127 111.893 94.1695 111.913 94.1323C111.933 94.0951 111.965 94.0663 112.003 94.0508L114.43 93.0633C114.451 93.0545 114.474 93.0502 114.497 93.0507C114.52 93.0511 114.543 93.0562 114.564 93.0657C114.586 93.0752 114.605 93.089 114.621 93.1062C114.637 93.1234 114.65 93.1437 114.658 93.1659C114.666 93.1882 114.671 93.2119 114.67 93.2358C114.67 93.2597 114.665 93.2833 114.656 93.3052C114.646 93.3272 114.633 93.347 114.617 93.3636C114.6 93.3802 114.58 93.3933 114.559 93.4021L112.133 94.3896C112.112 94.398 112.09 94.4023 112.068 94.4024Z" fill="#0C0C0C"/>
<path opacity="0.2" d="M113.422 97.948C113.381 97.9479 113.342 97.9331 113.31 97.9062C113.279 97.8793 113.257 97.8419 113.25 97.8005C113.242 97.7591 113.248 97.7162 113.268 97.6791C113.287 97.642 113.319 97.6131 113.356 97.5972L116.675 96.2177C116.718 96.2022 116.765 96.2044 116.806 96.2237C116.847 96.2431 116.88 96.2781 116.897 96.3216C116.914 96.3651 116.914 96.4136 116.897 96.4572C116.88 96.5007 116.848 96.5358 116.806 96.5552L113.488 97.9351C113.467 97.9436 113.445 97.9479 113.422 97.948Z" fill="#0C0C0C"/>
<path opacity="0.2" d="M114.869 101.798C114.828 101.798 114.788 101.783 114.757 101.755C114.725 101.728 114.703 101.69 114.696 101.648C114.689 101.606 114.696 101.563 114.716 101.526C114.737 101.489 114.769 101.46 114.808 101.445L116.39 100.832C116.433 100.814 116.482 100.816 116.524 100.836C116.567 100.856 116.6 100.892 116.617 100.938C116.633 100.983 116.632 101.033 116.613 101.077C116.593 101.121 116.558 101.155 116.514 101.172L114.932 101.786C114.912 101.794 114.891 101.798 114.869 101.798Z" fill="#0C0C0C"/>
<path d="M122.698 69.4363C122.621 69.4364 122.546 69.4146 122.481 69.3734C122.415 69.3322 122.362 69.2731 122.327 69.2027C121.381 67.2968 120.205 64.9243 120.337 62.4371C120.443 60.4591 121.34 58.7017 122.207 57.0045C122.767 55.9786 123.244 54.9068 123.634 53.7999C124.11 52.2725 124.229 50.6506 123.984 49.0663C123.739 47.4819 123.135 45.9799 122.222 44.6822C122.187 44.637 122.162 44.5852 122.148 44.5298C122.133 44.4745 122.13 44.4166 122.137 44.3598C122.145 44.3029 122.163 44.2482 122.191 44.1989C122.22 44.1495 122.257 44.1065 122.302 44.0724C122.347 44.0383 122.397 44.0138 122.451 44.0004C122.505 43.9869 122.561 43.9848 122.616 43.9941C122.671 44.0034 122.723 44.0239 122.77 44.0545C122.817 44.0851 122.858 44.1251 122.89 44.1722C123.881 45.5803 124.538 47.2106 124.805 48.9304C125.072 50.6502 124.942 52.4108 124.427 54.0691C124.023 55.2217 123.528 56.3377 122.945 57.4055C122.081 59.0967 121.265 60.6939 121.17 62.4847C121.049 64.7392 122.123 66.9027 123.069 68.8112C123.102 68.8766 123.117 68.9495 123.115 69.023C123.112 69.0964 123.091 69.1679 123.054 69.2307C123.017 69.2934 122.965 69.3453 122.903 69.3813C122.841 69.4173 122.771 69.4362 122.7 69.4363H122.698Z" fill="white"/>
<path d="M129.368 76.1375C129.276 76.1375 129.187 76.1059 129.114 76.0476C129.041 75.9893 128.989 75.9077 128.966 75.8155C128.943 75.7233 128.95 75.6259 128.987 75.5385C129.023 75.451 129.087 75.3786 129.167 75.3325C130.707 74.4549 130.879 72.0124 130.156 70.158C129.797 69.3057 129.377 68.4822 128.9 67.6944C128.262 66.6737 127.743 65.5783 127.355 64.4314C126.958 63.033 126.933 61.55 127.283 60.1382C127.632 58.7264 128.343 57.4381 129.341 56.4086C129.421 56.3305 129.527 56.2879 129.636 56.2901C129.746 56.2923 129.85 56.3391 129.926 56.4203C130.002 56.5015 130.045 56.6106 130.043 56.7238C130.042 56.837 129.998 56.9451 129.92 57.0247C129.03 57.9428 128.396 59.0917 128.084 60.3506C127.773 61.6095 127.795 62.9319 128.149 64.1789C128.518 65.261 129.01 66.294 129.615 67.2565C130.114 68.0809 130.553 68.9434 130.926 69.8364C131.773 72.0076 131.585 74.9349 129.568 76.0839C129.507 76.1189 129.438 76.1373 129.368 76.1375Z" fill="white"/>
<path d="M109.261 113.563L48.0873 139.727C45.8817 140.66 43.4609 140.909 41.1207 140.444C38.7805 139.978 36.6221 138.818 34.9094 137.105C33.1968 135.393 32.0039 133.201 31.4765 130.8C30.9492 128.398 31.1102 125.889 31.9399 123.58L50.1853 72.0781C52.5442 65.5142 59.1891 61.7398 65.5408 64.1781C68.5907 65.3488 71.0657 67.7237 72.4214 70.7803C73.777 73.837 73.9022 77.3249 72.7695 80.477L64.4474 104.853L100.3 90.5684" fill="#1F41BB"/>
<path d="M109.112 113.797C109.079 113.796 109.048 113.786 109.02 113.767C108.993 113.749 108.972 113.722 108.96 113.691L100.059 90.8496L64.3265 105.101C64.2969 105.113 64.2646 105.116 64.2336 105.109C64.2026 105.102 64.1741 105.086 64.1517 105.063C64.1293 105.04 64.114 105.01 64.1075 104.978C64.1011 104.946 64.1038 104.913 64.1154 104.882L69.6408 90.2262C69.6565 90.1844 69.6877 90.1509 69.7274 90.1329C69.7671 90.1149 69.8121 90.1139 69.8525 90.1302C69.8928 90.1465 69.9253 90.1787 69.9427 90.2197C69.9601 90.2607 69.9611 90.3072 69.9453 90.349L64.5545 104.648L100.092 90.4735C100.132 90.4575 100.176 90.4585 100.216 90.4761C100.255 90.4938 100.286 90.5268 100.302 90.5679L109.263 113.564C109.279 113.606 109.278 113.652 109.261 113.693C109.245 113.734 109.213 113.767 109.173 113.784C109.153 113.792 109.133 113.796 109.112 113.797Z" fill="#0C0C0C"/>
<path d="M53.1042 109.637C53.0659 109.637 53.0287 109.623 52.9991 109.598C52.9696 109.573 52.9494 109.538 52.9423 109.499C52.9352 109.46 52.9415 109.42 52.9602 109.386C52.9788 109.351 53.0086 109.324 53.0443 109.31L64.2359 104.759C64.256 104.751 64.2775 104.746 64.2992 104.746C64.3209 104.747 64.3423 104.751 64.3623 104.76C64.3823 104.769 64.4003 104.782 64.4155 104.798C64.4306 104.814 64.4425 104.833 64.4505 104.854C64.4584 104.874 64.4623 104.897 64.4618 104.919C64.4614 104.942 64.4566 104.964 64.4478 104.984C64.439 105.005 64.4264 105.023 64.4106 105.039C64.3949 105.054 64.3763 105.066 64.356 105.074L53.164 109.625C53.1449 109.633 53.1246 109.637 53.1042 109.637Z" fill="#0C0C0C"/>
<path d="M55.7106 136.672C55.6727 136.672 55.6359 136.659 55.6066 136.634C55.5772 136.609 55.5571 136.575 55.5497 136.536C55.5423 136.498 55.5482 136.458 55.5662 136.423C55.5841 136.389 55.6132 136.362 55.6483 136.347L109.051 113.471C109.071 113.463 109.092 113.459 109.114 113.459C109.135 113.459 109.156 113.463 109.176 113.472C109.196 113.48 109.214 113.493 109.229 113.508C109.244 113.524 109.256 113.543 109.265 113.563C109.273 113.584 109.277 113.606 109.277 113.628C109.277 113.65 109.273 113.672 109.264 113.692C109.256 113.713 109.244 113.731 109.229 113.747C109.214 113.763 109.196 113.775 109.176 113.784L55.773 136.659C55.7532 136.668 55.732 136.672 55.7106 136.672Z" fill="#0C0C0C"/>
<path d="M326.832 274.348C326.722 274.348 326.616 274.302 326.538 274.222C325.953 273.617 324.999 262.518 322.429 229.474C321.377 215.953 320.384 203.182 319.659 195.42C319.608 194.866 319.4 194.801 319.331 194.78C318.339 194.471 315.321 196.93 313.637 199.083C313.568 199.172 313.467 199.228 313.358 199.24C313.248 199.252 313.138 199.219 313.052 199.147C312.967 199.076 312.912 198.972 312.9 198.859C312.889 198.745 312.921 198.632 312.99 198.543C314.105 197.12 317.736 193.387 319.57 193.957C319.94 194.073 320.401 194.405 320.487 195.337C321.212 203.106 322.205 215.88 323.257 229.405C324.819 249.485 326.588 272.235 327.169 273.668C327.214 273.732 327.241 273.807 327.246 273.886C327.252 273.965 327.237 274.044 327.202 274.114C327.167 274.185 327.114 274.244 327.049 274.285C326.983 274.326 326.909 274.348 326.832 274.348Z" fill="#494949"/>
<path d="M318.592 209.662C325.486 203.951 327.771 195.062 323.696 189.808C319.62 184.554 310.728 184.924 303.834 190.635C296.941 196.346 294.656 205.235 298.731 210.489C302.806 215.743 311.698 215.373 318.592 209.662Z" fill="#1F41BB"/>
<path opacity="0.2" d="M318.592 209.662C325.486 203.951 327.771 195.062 323.696 189.808C319.62 184.554 310.728 184.924 303.834 190.635C296.941 196.346 294.656 205.235 298.731 210.489C302.806 215.743 311.698 215.373 318.592 209.662Z" fill="white"/>
<path d="M300.663 211.826C300.624 211.826 300.585 211.814 300.552 211.792C300.519 211.77 300.492 211.739 300.475 211.702C300.459 211.665 300.452 211.624 300.457 211.584C300.463 211.543 300.479 211.505 300.504 211.474L320.151 186.988C320.168 186.966 320.189 186.948 320.213 186.934C320.238 186.92 320.264 186.912 320.292 186.909C320.319 186.906 320.347 186.909 320.373 186.917C320.4 186.926 320.424 186.939 320.445 186.957C320.467 186.976 320.484 186.998 320.497 187.023C320.51 187.049 320.517 187.076 320.52 187.105C320.522 187.133 320.519 187.162 320.51 187.189C320.502 187.216 320.488 187.241 320.47 187.263L300.823 211.748C300.804 211.772 300.779 211.792 300.752 211.805C300.724 211.819 300.694 211.826 300.663 211.826Z" fill="white"/>
<path d="M331.117 269.099C331.051 269.099 330.986 269.082 330.927 269.051C330.868 269.019 330.817 268.974 330.778 268.918C330.74 268.862 330.715 268.798 330.706 268.73C330.696 268.662 330.703 268.593 330.725 268.528L338.105 246.594C338.322 245.949 338.692 245.371 339.182 244.913C339.671 244.455 340.264 244.131 340.906 243.971C341.548 243.811 342.218 243.82 342.856 243.997C343.494 244.174 344.078 244.514 344.556 244.985L348.457 248.837C348.537 248.915 348.583 249.024 348.586 249.137C348.588 249.251 348.547 249.362 348.471 249.444C348.395 249.526 348.29 249.574 348.18 249.576C348.07 249.579 347.963 249.536 347.883 249.458L343.982 245.606C343.605 245.234 343.143 244.966 342.64 244.826C342.136 244.687 341.607 244.68 341.101 244.806C340.594 244.932 340.126 245.188 339.74 245.55C339.353 245.911 339.061 246.367 338.889 246.876L331.509 268.81C331.481 268.894 331.428 268.967 331.358 269.019C331.288 269.071 331.204 269.098 331.117 269.099Z" fill="#494949"/>
<path d="M359.358 260.981C364.467 256.802 364.164 247.61 358.68 240.45C353.197 233.291 344.61 230.875 339.501 235.054C334.392 239.233 334.696 248.425 340.179 255.585C345.663 262.744 354.249 265.16 359.358 260.981Z" fill="#1F41BB"/>
<path d="M323.479 272.949C323.386 272.949 323.295 272.916 323.222 272.856C323.149 272.797 323.097 272.713 323.076 272.619L310.691 219.104C310.607 218.739 310.426 218.405 310.17 218.139C309.914 217.874 309.592 217.686 309.239 217.597C308.886 217.509 308.517 217.522 308.171 217.636C307.825 217.751 307.517 217.961 307.279 218.245L303.462 222.804C303.426 222.847 303.383 222.882 303.334 222.907C303.285 222.932 303.232 222.947 303.178 222.951C303.123 222.956 303.068 222.948 303.017 222.931C302.965 222.913 302.917 222.885 302.876 222.848C302.834 222.811 302.801 222.766 302.776 222.716C302.752 222.665 302.737 222.61 302.733 222.554C302.729 222.498 302.736 222.441 302.753 222.388C302.77 222.334 302.798 222.285 302.833 222.242L306.651 217.683C306.989 217.28 307.427 216.982 307.919 216.82C308.41 216.658 308.935 216.639 309.436 216.766C309.936 216.892 310.394 217.159 310.758 217.536C311.121 217.914 311.377 218.387 311.498 218.906L323.882 272.421C323.908 272.532 323.89 272.649 323.832 272.746C323.774 272.843 323.682 272.912 323.575 272.939C323.543 272.946 323.511 272.949 323.479 272.949Z" fill="#494949"/>
<path d="M318.912 234.692C320.417 225.695 316.433 217.471 310.012 216.324C303.592 215.176 297.167 221.54 295.661 230.537C294.156 239.535 298.14 247.758 304.561 248.906C310.981 250.053 317.406 243.69 318.912 234.692Z" fill="#1F41BB"/>
<path d="M326.833 274.348C326.816 274.348 326.798 274.346 326.781 274.344C326.672 274.33 326.572 274.272 326.505 274.183C326.437 274.093 326.406 273.979 326.42 273.866L334.328 207.507C334.414 206.784 334.701 206.102 335.153 205.543C335.605 204.984 336.204 204.572 336.877 204.356C337.551 204.141 338.27 204.131 338.949 204.328C339.628 204.525 340.237 204.921 340.703 205.467L349.742 216.047C349.815 216.133 349.852 216.245 349.846 216.358C349.839 216.472 349.788 216.578 349.706 216.654C349.623 216.729 349.515 216.767 349.405 216.76C349.295 216.753 349.192 216.701 349.119 216.616L340.08 206.035C339.72 205.613 339.249 205.307 338.724 205.155C338.199 205.002 337.643 205.01 337.122 205.177C336.602 205.344 336.139 205.662 335.789 206.095C335.44 206.527 335.219 207.055 335.153 207.614L327.243 273.971C327.231 274.074 327.182 274.17 327.107 274.239C327.031 274.309 326.934 274.347 326.833 274.348Z" fill="#494949"/>
<path d="M359.011 221.927C362.165 216.034 358.455 207.675 350.723 203.255C342.992 198.835 334.168 200.029 331.014 205.922C327.861 211.814 331.571 220.174 339.302 224.593C347.034 229.013 355.858 227.819 359.011 221.927Z" fill="#1F41BB"/>
<path opacity="0.2" d="M359.358 260.981C364.467 256.802 364.164 247.61 358.68 240.45C353.197 233.291 344.61 230.875 339.501 235.054C334.392 239.233 334.696 248.425 340.179 255.585C345.663 262.744 354.249 265.16 359.358 260.981Z" fill="white"/>
<path opacity="0.5" d="M318.912 234.692C320.417 225.695 316.433 217.471 310.012 216.324C303.592 215.176 297.167 221.54 295.661 230.537C294.156 239.535 298.14 247.758 304.561 248.906C310.981 250.053 317.406 243.69 318.912 234.692Z" fill="white"/>
<path opacity="0.5" d="M359.011 221.927C362.165 216.034 358.455 207.675 350.723 203.255C342.992 198.835 334.168 200.029 331.014 205.922C327.861 211.814 331.571 220.174 339.302 224.593C347.034 229.013 355.858 227.819 359.011 221.927Z" fill="white"/>
<path d="M336.947 330.653H316.717L313.365 263.759H340.3L336.947 330.653Z" fill="#292A2E"/>
<path opacity="0.3" d="M336.947 330.653H316.717L313.365 263.759H340.3L336.947 330.653Z" fill="white"/>
<path d="M359.359 261.193C359.327 261.193 359.296 261.186 359.268 261.172C359.24 261.158 359.215 261.137 359.195 261.112L339.337 235.185C339.303 235.14 339.287 235.083 339.294 235.027C339.3 234.97 339.328 234.918 339.371 234.883C339.414 234.848 339.469 234.832 339.524 234.838C339.579 234.845 339.629 234.873 339.663 234.918L359.521 260.845C359.545 260.876 359.56 260.914 359.565 260.954C359.569 260.995 359.562 261.035 359.545 261.071C359.529 261.108 359.502 261.138 359.469 261.16C359.436 261.181 359.398 261.193 359.359 261.193Z" fill="white"/>
<path d="M357.691 224.004C357.647 224.004 357.604 223.989 357.569 223.961L332.158 204.787C332.136 204.77 332.117 204.749 332.103 204.725C332.088 204.701 332.079 204.674 332.075 204.647C332.071 204.619 332.072 204.59 332.078 204.563C332.085 204.535 332.096 204.51 332.112 204.487C332.128 204.464 332.149 204.445 332.172 204.43C332.195 204.415 332.221 204.406 332.248 204.401C332.275 204.397 332.303 204.398 332.329 204.405C332.356 204.411 332.381 204.423 332.403 204.44L357.814 223.616C357.848 223.643 357.874 223.68 357.887 223.723C357.9 223.766 357.9 223.812 357.886 223.855C357.873 223.897 357.847 223.934 357.812 223.961C357.777 223.987 357.734 224.002 357.691 224.002V224.004Z" fill="white"/>
<path d="M303.528 248.626C303.51 248.626 303.492 248.624 303.474 248.619C303.421 248.604 303.376 248.568 303.348 248.519C303.321 248.47 303.313 248.411 303.327 248.356L311.417 217.034C311.423 217.006 311.435 216.98 311.452 216.958C311.468 216.935 311.489 216.916 311.513 216.901C311.536 216.887 311.563 216.877 311.59 216.873C311.617 216.869 311.645 216.871 311.672 216.879C311.698 216.886 311.723 216.899 311.745 216.916C311.767 216.934 311.785 216.955 311.799 216.98C311.813 217.005 311.821 217.032 311.824 217.06C311.828 217.089 311.826 217.117 311.818 217.145L303.729 248.467C303.717 248.513 303.691 248.553 303.655 248.582C303.618 248.611 303.574 248.626 303.528 248.626Z" fill="white"/>
</svg>
